<svg width="63" height="63" viewBox="0 0 63 63" fill="none" xmlns="http://www.w3.org/2000/svg">
<path d="M18.375 44.625H23.625V31.5H18.375V44.625ZM39.375 44.625H44.625V18.375H39.375V44.625ZM28.875 44.625H34.125V36.75H28.875V44.625ZM28.875 31.5H34.125V26.25H28.875V31.5ZM13.125 55.125C11.6812 55.125 10.4458 54.6114 9.4185 53.5841C8.39125 52.5569 7.87675 51.3205 7.875 49.875V13.125C7.875 11.6812 8.3895 10.4458 9.4185 9.4185C10.4475 8.39125 11.683 7.87675 13.125 7.875H49.875C51.3187 7.875 52.5551 8.3895 53.5841 9.4185C54.6131 10.4475 55.1268 11.683 55.125 13.125V49.875C55.125 51.3187 54.6114 52.5551 53.5841 53.5841C52.5569 54.6131 51.3205 55.1268 49.875 55.125H13.125ZM13.125 49.875H49.875V13.125H13.125V49.875Z" fill="#FFFCFC"/>
</svg>
