<svg width="15" height="15" viewBox="0 0 15 15" fill="none" xmlns="http://www.w3.org/2000/svg">
<path d="M13.35 4.575L10.75 5.875M10.75 5.875L10.425 6.0375L7.5 7.5M10.75 5.875V8.15M10.75 5.875L4.575 2.625M7.5 7.5L1.65 4.575M7.5 7.5V13.675M9.8257 1.8983L11.1257 2.5808C12.5238 3.31465 13.2232 3.68125 13.6119 4.341C14 5.0001 14 5.82105 14 7.4623V7.53835C14 9.17895 14 9.9999 13.6119 10.659C13.2232 11.3188 12.5238 11.686 11.1257 12.4198L9.8257 13.1017C8.6843 13.7003 8.1136 14 7.5 14C6.8864 14 6.3157 13.701 5.1743 13.1017L3.8743 12.4192C2.47615 11.6854 1.77675 11.3188 1.38805 10.659C1 9.9999 1 9.17895 1 7.539V7.46295C1 5.8217 1 5.00075 1.38805 4.34165C1.77675 3.6819 2.47615 3.31465 3.8743 2.58145L5.1743 1.89895C6.3157 1.29965 6.8864 1 7.5 1C8.1136 1 8.6843 1.299 9.8257 1.8983Z" stroke="#BCB5B5" stroke-width="1.5" stroke-linecap="round"/>
</svg>
