<svg width="55" height="55" viewBox="0 0 55 55" fill="none" xmlns="http://www.w3.org/2000/svg">
<path d="M43.9771 27.6605C45.1229 26.4459 45.8333 24.7959 45.8333 22.9167C45.8333 19.0209 42.8542 15.675 38.9583 15.675H32.5417C32.5417 9.55629 27.5687 4.58337 21.45 4.58337C16.7521 4.58337 12.7417 7.51671 11.1146 11.6417C8.75303 11.7114 6.51137 12.6977 4.86447 14.3916C3.21757 16.0856 2.29481 18.3541 2.29166 20.7167C2.29771 23.1217 3.25577 25.4264 4.95635 27.127C6.65694 28.8276 8.96168 29.7857 11.3667 29.7917H18.5625C18.425 30.548 18.3333 31.3042 18.3333 32.0834H17.1875C12.7646 32.0834 9.16666 35.6813 9.16666 40.1042C9.16666 44.5271 12.7646 48.125 17.1875 48.125H42.3958C48.125 48.125 52.7083 43.5417 52.7083 37.8125C52.7083 32.6792 48.9042 28.4396 43.9771 27.6605ZM42.3958 43.5417H17.1875C15.2854 43.5417 13.75 42.0063 13.75 40.1042C13.75 38.2021 15.2854 36.6667 17.1875 36.6667H22.9167V32.0834C22.9167 27.6605 26.5146 24.0625 30.9375 24.0625C35.3604 24.0625 38.9583 27.6605 38.9583 32.0834H42.3958C43.9153 32.0834 45.3725 32.687 46.447 33.7614C47.5214 34.8358 48.125 36.2931 48.125 37.8125C48.125 39.332 47.5214 40.7892 46.447 41.8637C45.3725 42.9381 43.9153 43.5417 42.3958 43.5417Z" fill="white"/>
</svg>
