<svg width="38" height="38" viewBox="0 0 38 38" fill="none" xmlns="http://www.w3.org/2000/svg">
<path d="M28.5 29.2917C29.8142 29.2917 30.875 28.2309 30.875 26.9167C30.875 25.6025 29.8142 24.5417 28.5 24.5417C27.1858 24.5417 26.125 25.6025 26.125 26.9167C26.125 28.2309 27.1858 29.2917 28.5 29.2917ZM30.875 15.0417H26.9167V19H33.9783L30.875 15.0417ZM9.5 29.2917C10.8142 29.2917 11.875 28.2309 11.875 26.9167C11.875 25.6025 10.8142 24.5417 9.5 24.5417C8.18584 24.5417 7.125 25.6025 7.125 26.9167C7.125 28.2309 8.18584 29.2917 9.5 29.2917ZM31.6667 12.6667L36.4167 19V26.9167H33.25C33.25 29.545 31.1283 31.6667 28.5 31.6667C25.8717 31.6667 23.75 29.545 23.75 26.9167H14.25C14.25 29.545 12.1283 31.6667 9.5 31.6667C6.87167 31.6667 4.75 29.545 4.75 26.9167H1.58334V9.50004C1.58334 7.74254 2.9925 6.33337 4.75 6.33337H26.9167V12.6667H31.6667ZM4.75 9.50004V23.75H5.95334C6.82417 22.7842 8.09084 22.1667 9.5 22.1667C10.9092 22.1667 12.1758 22.7842 13.0467 23.75H23.75V9.50004H4.75Z" fill="#BCB5B5"/>
</svg>
