<svg width="76" height="76" viewBox="0 0 76 76" fill="none" xmlns="http://www.w3.org/2000/svg">
<path d="M6.33333 31.6666L22.1667 12.6666M22.1667 12.6666L39.311 29.811C40.2293 30.7293 40.6853 31.1853 41.2648 31.426C41.8475 31.6666 42.4967 31.6666 43.7887 31.6666H69.6667L57.6333 17.2266C55.765 14.9846 54.8308 13.8636 53.5547 13.2651C52.2753 12.6666 50.8187 12.6666 47.9022 12.6666H22.1667Z" stroke="white" stroke-width="1.5" stroke-linecap="round" stroke-linejoin="round"/>
<path d="M34.8333 25.3333V63.3333M34.8333 63.3333H9.5V28.0471M34.8333 63.3333H66.5V28.5M12.6667 23.75V12.6666M22.192 38H22.1635M22.1667 63.3333V50.6666M47.5 44.3333H53.8333" stroke="white" stroke-width="1.5" stroke-linecap="round" stroke-linejoin="round"/>
</svg>
