<svg width="163" height="93" viewBox="0 0 163 93" fill="none" xmlns="http://www.w3.org/2000/svg">
<path d="M12.4193 33.9467C11.7369 33.9254 11.1875 33.7482 10.771 33.415C10.3552 33.0606 10.03 32.5382 9.79546 31.8478L3.90168 13.479C3.64978 12.6601 3.72472 11.9688 4.1265 11.405C4.54961 10.842 5.25159 10.5757 6.23245 10.6063C6.91478 10.6276 7.4322 10.8039 7.78471 11.135C8.15854 11.4669 8.45208 11.9776 8.66533 12.6673L13.4526 28.5363L12.0772 28.4934L18.1317 12.9948C18.4089 12.3204 18.7337 11.829 19.1062 11.5204C19.5007 11.1913 20.0071 11.0363 20.6254 11.0556C21.2225 11.0743 21.6969 11.2598 22.0488 11.6123C22.4013 11.9435 22.6945 12.4649 22.9284 13.1765L27.7496 28.9826L26.5662 28.9457L32.4298 13.4091C32.6636 12.7547 32.9774 12.2736 33.3712 11.9657C33.7657 11.6365 34.2934 11.4823 34.9545 11.5029C35.7861 11.5288 36.3848 11.8357 36.7506 12.4234C37.1165 13.0111 37.1375 13.7054 36.8137 14.5064L29.7208 32.5018C29.4656 33.1555 29.1301 33.6466 28.7143 33.9751C28.2992 34.2823 27.7398 34.425 27.0361 34.403C26.3538 34.3817 25.8151 34.2048 25.4199 33.8723C25.0254 33.5185 24.7109 32.9964 24.4763 32.3061L19.869 17.8513L20.6367 17.8753L15.0719 32.0446C14.7954 32.6976 14.4492 33.1884 14.0334 33.5169C13.6397 33.8247 13.1016 33.968 12.4193 33.9467ZM45.5744 35.0457C43.7193 34.9878 42.1304 34.6074 40.8076 33.9044C39.5069 33.1808 38.513 32.2 37.826 30.962C37.1609 29.7033 36.8544 28.2423 36.9063 26.5791C36.9569 24.9586 37.3423 23.5513 38.0626 22.3571C38.7835 21.1417 39.7623 20.2118 40.999 19.5674C42.2577 18.9024 43.6654 18.5941 45.2219 18.6427C46.3521 18.678 47.3696 18.9018 48.2745 19.3143C49.1801 19.7054 49.9524 20.2631 50.5914 20.9874C51.2311 21.6903 51.7059 22.5482 52.0158 23.5611C52.3264 24.5526 52.4627 25.656 52.4247 26.8714C52.4121 27.2766 52.2745 27.5818 52.012 27.787C51.7501 27.9709 51.3739 28.0552 50.8835 28.0399L40.8404 27.7264L40.9183 25.2316L48.9784 25.4832L48.4526 25.915C48.4799 25.0408 48.3746 24.3118 48.1367 23.7281C47.8995 23.1231 47.5403 22.6637 47.0592 22.3498C46.5994 22.0367 46.0177 21.8691 45.314 21.8471C44.5251 21.8225 43.8477 21.9828 43.282 22.328C42.7163 22.6732 42.2735 23.1823 41.9537 23.8553C41.6339 24.5283 41.459 25.3446 41.4291 26.3041L41.4211 26.56C41.3705 28.1805 41.7064 29.3863 42.4287 30.1772C43.1724 30.9688 44.2905 31.3879 45.7831 31.4344C46.2949 31.4504 46.8833 31.4048 47.5483 31.2974C48.2133 31.1901 48.838 31.0069 49.4223 30.7477C49.9201 30.5284 50.3595 30.4674 50.7407 30.5647C51.1225 30.6406 51.4157 30.8205 51.6203 31.1044C51.8248 31.3883 51.9321 31.7118 51.9421 32.0749C51.9735 32.4387 51.8875 32.7989 51.6843 33.1554C51.4817 33.4906 51.1529 33.7684 50.6978 33.989C49.9602 34.3715 49.1299 34.6444 48.2071 34.8077C47.3048 34.993 46.4273 35.0723 45.5744 35.0457ZM63.4481 35.6036C62.5526 35.5757 61.638 35.4724 60.7045 35.2939C59.7916 35.1373 58.9127 34.9178 58.0677 34.6353C57.2441 34.3534 56.5078 34.0103 55.8588 33.6059C55.3977 33.3353 55.0775 32.9945 54.8982 32.5834C54.7196 32.1509 54.6583 31.7222 54.7143 31.297C54.7915 30.8726 54.9631 30.5044 55.229 30.1925C55.5168 29.86 55.8646 29.6574 56.2724 29.5848C56.7022 29.4915 57.169 29.5808 57.6728 29.8526C58.5317 30.3703 59.4693 30.7624 60.4854 31.029C61.5229 31.2961 62.5534 31.4457 63.5769 31.4776C65.1335 31.5262 66.2496 31.3263 66.9253 30.8778C67.6016 30.408 67.9511 29.8106 67.9737 29.0856C67.993 28.4673 67.7738 27.9695 67.316 27.5924C66.8582 27.2153 66.0469 26.8804 64.8821 26.588L61.2918 25.7075C59.2582 25.2172 57.7562 24.4446 56.786 23.3898C55.8377 22.3144 55.3899 20.9344 55.4425 19.2499C55.4758 18.1837 55.7299 17.2205 56.205 16.3603C56.6801 15.5 57.3327 14.7627 58.163 14.1483C58.9932 13.5339 59.968 13.0734 61.0875 12.7668C62.2283 12.461 63.4703 12.329 64.8137 12.3709C66.0077 12.4082 67.1758 12.594 68.318 12.9285C69.4608 13.2416 70.4606 13.6891 71.3176 14.2707C71.736 14.5399 72.0136 14.8794 72.1502 15.2892C72.3088 15.6784 72.3498 16.0745 72.2732 16.4776C72.2185 16.8601 72.048 17.1963 71.7614 17.4862C71.4963 17.7767 71.1598 17.9583 70.752 18.0309C70.3442 18.1036 69.8567 17.9923 69.2897 17.6971C68.5973 17.3127 67.8593 17.0229 67.0757 16.8276C66.2921 16.6324 65.4845 16.5219 64.6529 16.4959C63.7573 16.4679 62.986 16.5613 62.339 16.7758C61.7133 16.9911 61.2233 17.3066 60.8688 17.7224C60.5356 18.1389 60.3604 18.6243 60.3431 19.1787C60.3238 19.7971 60.532 20.3052 60.9678 20.703C61.4036 21.1008 62.1723 21.4342 63.2737 21.7034L66.864 22.5838C68.9397 23.0969 70.4736 23.8704 71.4659 24.9046C72.4587 25.9174 72.9299 27.234 72.8793 28.8546C72.846 29.9207 72.6025 30.8843 72.1488 31.7452C71.6957 32.5848 71.0544 33.3011 70.2248 33.8942C69.3952 34.4873 68.41 34.9368 67.2693 35.2427C66.1292 35.5272 64.8555 35.6475 63.4481 35.6036ZM77.8951 35.9905C77.1062 35.9659 76.5051 35.7337 76.092 35.2939C75.7001 34.8548 75.5165 34.2408 75.5412 33.4519L76.1092 15.2527C76.1345 14.4425 76.3561 13.8411 76.7739 13.4486C77.2136 13.0354 77.828 12.8412 78.6169 12.8658C79.3846 12.8898 79.9643 13.1213 80.3561 13.5604C80.7699 13.9788 80.9642 14.5932 80.9389 15.4035L80.7013 23.0158L80.2535 23.0018C80.7765 21.9723 81.5265 21.1953 82.5033 20.6709C83.5021 20.1258 84.6199 19.8725 85.8567 19.9111C87.1147 19.9504 88.1412 20.2279 88.9362 20.7436C89.7318 21.238 90.3169 21.9819 90.6914 22.9754C91.0666 23.9476 91.2309 25.18 91.1843 26.6726L90.9577 33.9331C90.933 34.722 90.7008 35.3231 90.2611 35.7362C89.8426 36.15 89.2389 36.3446 88.45 36.32C87.6823 36.296 87.092 36.0642 86.6788 35.6244C86.287 35.1853 86.1034 34.5713 86.128 33.7823L86.3477 26.7458C86.3816 25.6583 86.2033 24.8737 85.8128 24.3919C85.4443 23.8895 84.8549 23.6257 84.0447 23.6004C83.0212 23.5684 82.1902 23.8626 81.5519 24.483C80.9349 25.1041 80.6098 25.9477 80.5765 27.0138L80.3708 33.6026C80.3196 35.2445 79.4943 36.0405 77.8951 35.9905Z" fill="#F8F8F8"/>
<mask id="path-2-outside-1_3_4" maskUnits="userSpaceOnUse" x="95.2808" y="10.9961" width="59.8137" height="28.8276" fill="black">
<rect fill="white" x="95.2808" y="10.9961" width="59.8137" height="28.8276"/>
<path d="M99.6841 36.4076C98.8738 36.3823 98.2621 36.1497 97.849 35.71C97.4358 35.2702 97.2416 34.6558 97.2662 33.8669L97.6206 22.5124C97.6452 21.7235 97.8664 21.1328 98.2842 20.7403C98.724 20.3271 99.317 20.1322 100.063 20.1555C100.831 20.1795 101.411 20.411 101.803 20.8501C102.195 21.2679 102.379 21.8712 102.354 22.6602L102.302 24.3234L101.983 24.3134C102.278 23.042 102.874 22.0681 103.771 21.3918C104.667 20.7154 105.809 20.3562 107.198 20.3142C107.732 20.2882 108.133 20.4394 108.4 20.7679C108.689 21.0757 108.834 21.5818 108.833 22.2861C108.855 22.9485 108.7 23.4666 108.368 23.8404C108.058 24.2149 107.539 24.4335 106.811 24.4961L106.074 24.5371C104.855 24.6058 103.938 24.9294 103.322 25.5078C102.728 26.0868 102.413 26.9414 102.377 28.0715L102.192 34.0207C102.167 34.8096 101.935 35.4106 101.495 35.8238C101.077 36.2376 100.473 36.4322 99.6841 36.4076ZM112.802 36.785C112.013 36.7604 111.413 36.5175 111 36.0565C110.61 35.5747 110.427 34.918 110.453 34.0864L110.795 23.1478C110.821 22.2948 111.044 21.6508 111.463 21.2157C111.904 20.7599 112.519 20.5443 113.308 20.5689C114.076 20.5929 114.655 20.8458 115.046 21.3275C115.458 21.7886 115.651 22.4456 115.624 23.2985L115.283 34.2372C115.257 35.0688 115.034 35.7128 114.614 36.1693C114.195 36.6044 113.591 36.8097 112.802 36.785ZM113.39 17.9462C112.495 17.9183 111.808 17.6941 111.33 17.2736C110.874 16.8325 110.659 16.2281 110.682 15.4605C110.707 14.6716 110.96 14.0819 111.442 13.6914C111.946 13.2802 112.645 13.0886 113.541 13.1166C114.437 13.1445 115.112 13.379 115.568 13.8201C116.024 14.2399 116.24 14.8443 116.216 15.6332C116.192 16.4009 115.939 16.9906 115.456 17.4024C114.974 17.7929 114.286 17.9742 113.39 17.9462ZM121.36 37.0842C120.571 37.0595 119.97 36.8273 119.556 36.3876C119.165 35.9485 118.981 35.3344 119.006 34.5455L119.36 23.191C119.385 22.4021 119.606 21.8113 120.024 21.4189C120.463 21.0057 121.056 20.8108 121.803 20.8341C122.57 20.858 123.15 21.0896 123.542 21.5287C123.934 21.9465 124.118 22.5498 124.094 23.3388L124.037 25.1619L123.718 24.0954C124.241 23.0659 124.991 22.2889 125.968 21.7645C126.967 21.2194 128.084 20.9661 129.321 21.0047C130.579 21.044 131.606 21.3215 132.401 21.8372C133.196 22.3316 133.781 23.0756 134.156 24.0691C134.531 25.0412 134.695 26.2736 134.649 27.7662L134.422 35.0267C134.397 35.8157 134.165 36.4167 133.725 36.8299C133.307 37.2437 132.703 37.4383 131.914 37.4136C131.147 37.3897 130.556 37.1578 130.143 36.718C129.751 36.2789 129.568 35.6649 129.592 34.876L129.812 27.8394C129.846 26.7519 129.668 25.9673 129.277 25.4855C128.909 24.9831 128.319 24.7193 127.509 24.694C126.486 24.662 125.655 24.9563 125.016 25.5767C124.399 26.1977 124.074 27.0413 124.041 28.1075L123.835 34.6962C123.784 36.3381 122.959 37.1341 121.36 37.0842ZM140.382 37.6779C139.593 37.6533 138.992 37.4211 138.578 36.9813C138.187 36.5422 138.003 35.9282 138.028 35.1393L138.596 16.9401C138.621 16.1298 138.842 15.5285 139.26 15.136C139.7 14.7228 140.314 14.5286 141.103 14.5532C141.871 14.5772 142.451 14.8087 142.843 15.2478C143.256 15.6662 143.451 16.2806 143.425 17.0909L143.077 28.2534L143.141 28.2554L147.939 23.2507C148.425 22.7323 148.864 22.3511 149.256 22.1072C149.669 21.8427 150.207 21.7207 150.868 21.7413C151.529 21.762 152.025 21.9482 152.355 22.3C152.707 22.6525 152.875 23.074 152.86 23.5644C152.867 24.0341 152.649 24.5076 152.207 24.9847L147.143 30.3013L147.2 28.4782L152.442 34.9169C152.831 35.4199 152.987 35.9157 152.907 36.4041C152.849 36.8932 152.624 37.2917 152.23 37.5995C151.837 37.8861 151.342 38.02 150.744 38.0014C150.019 37.9788 149.437 37.8219 148.998 37.5307C148.58 37.2402 148.157 36.8001 147.727 36.2104L143.065 30.6862L143.001 30.6843L142.857 35.29C142.806 36.9319 141.981 37.7278 140.382 37.6779Z"/>
</mask>
<path d="M97.849 35.71L97.1201 36.3947L97.1201 36.3947L97.849 35.71ZM98.2842 20.7403L97.5995 20.0114L97.5995 20.0114L98.2842 20.7403ZM101.803 20.8501L101.056 21.5159L101.065 21.5255L101.074 21.5348L101.803 20.8501ZM102.302 24.3234L102.271 25.3229L103.271 25.3541L103.302 24.3546L102.302 24.3234ZM101.983 24.3134L101.009 24.0868L100.732 25.2749L101.951 25.3129L101.983 24.3134ZM107.198 20.3142L107.228 21.3137L107.237 21.3134L107.246 21.313L107.198 20.3142ZM108.4 20.7679L107.625 21.3989L107.647 21.4266L107.671 21.4526L108.4 20.7679ZM108.833 22.2861L107.833 22.2852L107.833 22.3023L107.834 22.3194L108.833 22.2861ZM108.368 23.8404L107.621 23.1766L107.609 23.1892L107.599 23.2021L108.368 23.8404ZM106.811 24.4961L106.867 25.4946L106.882 25.4938L106.897 25.4924L106.811 24.4961ZM106.074 24.5371L106.018 23.5387L106.017 23.5387L106.074 24.5371ZM103.322 25.5078L102.637 24.7789L102.631 24.7852L102.624 24.7915L103.322 25.5078ZM101.495 35.8238L100.81 35.095L100.801 35.1037L100.792 35.1128L101.495 35.8238ZM99.7153 35.4081C99.0763 35.3881 98.7538 35.2127 98.5778 35.0253L97.1201 36.3947C97.7704 37.0868 98.6713 37.3764 99.6529 37.4071L99.7153 35.4081ZM98.5778 35.0253C98.3971 34.833 98.2467 34.5069 98.2657 33.8981L96.2667 33.8357C96.2364 34.8048 96.4745 35.7074 97.1201 36.3947L98.5778 35.0253ZM98.2657 33.8981L98.6201 22.5436L96.6211 22.4812L96.2667 33.8357L98.2657 33.8981ZM98.6201 22.5436C98.6397 21.9177 98.8079 21.6203 98.9689 21.4691L97.5995 20.0114C96.9249 20.6452 96.6508 21.5292 96.6211 22.4812L98.6201 22.5436ZM98.9689 21.4691C99.1717 21.2786 99.4842 21.1379 100.032 21.155L100.095 19.156C99.1498 19.1265 98.2763 19.3756 97.5995 20.0114L98.9689 21.4691ZM100.032 21.155C100.613 21.1732 100.898 21.3387 101.056 21.5159L102.549 20.1843C101.923 19.4833 101.048 19.1858 100.095 19.156L100.032 21.155ZM101.074 21.5348C101.225 21.6958 101.374 22.0031 101.355 22.629L103.354 22.6914C103.384 21.7394 103.165 20.84 102.531 20.1654L101.074 21.5348ZM101.355 22.629L101.303 24.2922L103.302 24.3546L103.354 22.6914L101.355 22.629ZM102.334 23.3239L102.014 23.3139L101.951 25.3129L102.271 25.3229L102.334 23.3239ZM102.957 24.54C103.208 23.4577 103.693 22.7028 104.373 22.19L103.168 20.5936C102.055 21.4335 101.348 22.6263 101.009 24.0868L102.957 24.54ZM104.373 22.19C105.068 21.6653 105.997 21.351 107.228 21.3137L107.168 19.3146C105.622 19.3614 104.265 19.7655 103.168 20.5936L104.373 22.19ZM107.246 21.313C107.556 21.2979 107.61 21.3813 107.625 21.3989L109.176 20.1369C108.656 19.4975 107.908 19.2784 107.149 19.3153L107.246 21.313ZM107.671 21.4526C107.701 21.4844 107.834 21.6763 107.833 22.2852L109.833 22.2871C109.834 21.4873 109.678 20.667 109.129 20.0832L107.671 21.4526ZM107.834 22.3194C107.85 22.8114 107.733 23.05 107.621 23.1766L109.116 24.5042C109.668 23.8831 109.86 23.0856 109.833 22.2529L107.834 22.3194ZM107.599 23.2021C107.528 23.2868 107.319 23.4487 106.725 23.4998L106.897 25.4924C107.759 25.4182 108.587 25.143 109.138 24.4787L107.599 23.2021ZM106.756 23.4977L106.018 23.5387L106.129 25.5356L106.867 25.4946L106.756 23.4977ZM106.017 23.5387C104.666 23.6149 103.486 23.9813 102.637 24.7789L104.007 26.2366C104.389 25.8775 105.044 25.5968 106.13 25.5356L106.017 23.5387ZM102.624 24.7915C101.785 25.6085 101.418 26.7471 101.378 28.0403L103.377 28.1027C103.407 27.1358 103.67 26.5651 104.02 26.224L102.624 24.7915ZM101.378 28.0403L101.192 33.9895L103.191 34.0518L103.377 28.1027L101.378 28.0403ZM101.192 33.9895C101.173 34.5983 101.003 34.9143 100.81 35.095L102.18 36.5526C102.867 35.907 103.161 35.0209 103.191 34.0518L101.192 33.9895ZM100.792 35.1128C100.628 35.2747 100.327 35.4272 99.7153 35.4081L99.6529 37.4071C100.619 37.4372 101.525 37.2005 102.198 36.5348L100.792 35.1128ZM111 36.0565L110.223 36.6861L110.239 36.705L110.255 36.7232L111 36.0565ZM111.463 21.2157L110.745 20.5202L110.743 20.522L111.463 21.2157ZM115.046 21.3275L114.269 21.9572L114.284 21.9761L114.3 21.9942L115.046 21.3275ZM114.614 36.1693L115.335 36.863L115.343 36.8547L115.35 36.8462L114.614 36.1693ZM111.33 17.2736L110.635 17.9922L110.652 18.0087L110.67 18.0243L111.33 17.2736ZM111.442 13.6914L112.072 14.4682L112.074 14.4661L111.442 13.6914ZM115.568 13.8201L114.873 14.5387L114.882 14.5476L114.891 14.5562L115.568 13.8201ZM115.456 17.4024L116.086 18.1793L116.096 18.1712L116.105 18.163L115.456 17.4024ZM112.833 35.7855C112.238 35.7669 111.928 35.5942 111.745 35.3897L110.255 36.7232C110.897 37.4409 111.788 37.7539 112.771 37.7845L112.833 35.7855ZM111.777 35.4268C111.583 35.187 111.432 34.792 111.453 34.1176L109.454 34.0552C109.423 35.044 109.637 35.9624 110.223 36.6861L111.777 35.4268ZM111.453 34.1176L111.794 23.179L109.795 23.1166L109.454 34.0552L111.453 34.1176ZM111.794 23.179C111.816 22.472 111.996 22.1041 112.184 21.9094L110.743 20.522C110.092 21.1975 109.826 22.1177 109.795 23.1166L111.794 23.179ZM112.182 21.9111C112.381 21.7055 112.696 21.5503 113.277 21.5684L113.34 19.5694C112.343 19.5383 111.428 19.8143 110.745 20.5203L112.182 21.9111ZM113.277 21.5684C113.829 21.5857 114.104 21.7537 114.269 21.9572L115.822 20.6978C115.206 19.9378 114.323 19.6001 113.34 19.5694L113.277 21.5684ZM114.3 21.9942C114.485 22.2013 114.647 22.5724 114.625 23.2673L116.624 23.3297C116.655 22.3188 116.431 21.3759 115.791 20.6608L114.3 21.9942ZM114.625 23.2673L114.283 34.206L116.282 34.2684L116.624 23.3297L114.625 23.2673ZM114.283 34.206C114.262 34.8804 114.087 35.2652 113.878 35.4924L115.35 36.8462C115.981 36.1605 116.252 35.2572 116.282 34.2684L114.283 34.206ZM113.894 35.4755C113.727 35.6494 113.431 35.8042 112.833 35.7855L112.771 37.7845C113.751 37.8151 114.664 37.5594 115.335 36.863L113.894 35.4755ZM113.421 16.9467C112.665 16.9231 112.235 16.7377 111.991 16.5229L110.67 18.0243C111.381 18.6504 112.325 18.9134 113.359 18.9457L113.421 16.9467ZM112.026 16.555C111.814 16.3505 111.665 16.0421 111.682 15.4917L109.683 15.4293C109.652 16.4142 109.934 17.3145 110.635 17.9922L112.026 16.555ZM111.682 15.4917C111.7 14.908 111.874 14.6281 112.072 14.4682L110.812 12.9145C110.046 13.5356 109.714 14.4351 109.683 15.4293L111.682 15.4917ZM112.074 14.4661C112.331 14.2566 112.764 14.0928 113.51 14.1161L113.572 12.117C112.527 12.0844 111.561 12.3038 110.81 12.9166L112.074 14.4661ZM113.51 14.1161C114.259 14.1395 114.658 14.3306 114.873 14.5387L116.263 13.1016C115.567 12.4275 114.614 12.1496 113.572 12.117L113.51 14.1161ZM114.891 14.5562C115.078 14.7281 115.234 15.0183 115.216 15.602L117.215 15.6644C117.246 14.6702 116.971 13.7518 116.245 13.0841L114.891 14.5562ZM115.216 15.602C115.199 16.1524 115.031 16.4509 114.807 16.6418L116.105 18.163C116.847 17.5302 117.185 16.6493 117.215 15.6644L115.216 15.602ZM114.827 16.6256C114.599 16.8099 114.182 16.9704 113.421 16.9467L113.359 18.9457C114.39 18.9779 115.35 18.7759 116.086 18.1793L114.827 16.6256ZM119.556 36.3876L118.81 37.0534L118.819 37.0629L118.828 37.0723L119.556 36.3876ZM120.024 21.4189L119.339 20.69L119.339 20.69L120.024 21.4189ZM123.542 21.5287L122.796 22.1945L122.804 22.204L122.813 22.2134L123.542 21.5287ZM124.037 25.1619L123.079 25.4484L125.036 25.1931L124.037 25.1619ZM123.718 24.0954L122.826 23.6425L122.645 23.9989L122.76 24.3819L123.718 24.0954ZM125.968 21.7645L126.441 22.6456L126.447 22.6423L125.968 21.7645ZM132.401 21.8372L131.856 22.6761L131.865 22.6814L131.873 22.6866L132.401 21.8372ZM134.156 24.0691L133.22 24.4218L133.223 24.4291L134.156 24.0691ZM133.725 36.8299L133.041 36.101L133.031 36.1098L133.022 36.1188L133.725 36.8299ZM130.143 36.718L129.397 37.3838L129.406 37.3934L129.414 37.4027L130.143 36.718ZM129.277 25.4855L128.471 26.077L128.485 26.0965L128.5 26.1152L129.277 25.4855ZM125.016 25.5767L124.319 24.8595L124.313 24.8656L124.307 24.8719L125.016 25.5767ZM121.391 36.0847C120.782 36.0656 120.466 35.8951 120.285 35.7029L118.828 37.0723C119.473 37.7595 120.359 38.0534 121.328 38.0837L121.391 36.0847ZM120.303 35.7218C120.133 35.5316 119.986 35.1989 120.005 34.5767L118.006 34.5143C117.976 35.47 118.196 36.3653 118.81 37.0534L120.303 35.7218ZM120.005 34.5767L120.36 23.2222L118.361 23.1598L118.006 34.5143L120.005 34.5767ZM120.36 23.2222C120.379 22.5963 120.547 22.2989 120.708 22.1477L119.339 20.69C118.664 21.3238 118.39 22.2078 118.361 23.1598L120.36 23.2222ZM120.708 22.1477C120.911 21.9572 121.224 21.8165 121.772 21.8336L121.834 19.8346C120.889 19.8051 120.016 20.0542 119.339 20.69L120.708 22.1477ZM121.772 21.8336C122.353 21.8517 122.638 22.0172 122.796 22.1945L124.288 20.8629C123.663 20.1619 122.788 19.8643 121.834 19.8346L121.772 21.8336ZM122.813 22.2134C122.964 22.3744 123.114 22.6817 123.094 23.3076L125.093 23.37C125.123 22.418 124.904 21.5185 124.271 20.844L122.813 22.2134ZM123.094 23.3076L123.037 25.1307L125.036 25.1931L125.093 23.37L123.094 23.3076ZM124.995 24.8754L124.676 23.8089L122.76 24.3819L123.079 25.4484L124.995 24.8754ZM124.609 24.5484C125.044 23.6929 125.652 23.0692 126.441 22.6455L125.495 20.8834C124.33 21.5087 123.438 22.4389 122.826 23.6425L124.609 24.5484ZM126.447 22.6423C127.276 22.1898 128.215 21.9707 129.29 22.0042L129.352 20.0052C127.954 19.9616 126.657 20.249 125.489 20.8867L126.447 22.6423ZM129.29 22.0042C130.424 22.0396 131.257 22.2873 131.856 22.6761L132.945 20.9983C131.954 20.3557 130.735 20.0484 129.352 20.0052L129.29 22.0042ZM131.873 22.6866C132.457 23.0496 132.912 23.6054 133.22 24.4218L135.092 23.7163C134.65 22.5457 133.936 21.6137 132.928 20.9878L131.873 22.6866ZM133.223 24.4291C133.534 25.235 133.693 26.3227 133.649 27.735L135.648 27.7974C135.697 26.2246 135.528 24.8475 135.089 23.709L133.223 24.4291ZM133.649 27.735L133.423 34.9955L135.422 35.0579L135.648 27.7974L133.649 27.735ZM133.423 34.9955C133.404 35.6043 133.233 35.9204 133.041 36.101L134.41 37.5587C135.097 36.913 135.391 36.027 135.422 35.0579L133.423 34.9955ZM133.022 36.1188C132.859 36.2808 132.558 36.4332 131.946 36.4141L131.883 38.4131C132.849 38.4433 133.756 38.2065 134.429 37.5409L133.022 36.1188ZM131.946 36.4141C131.367 36.3961 131.057 36.2307 130.872 36.0333L129.414 37.4027C130.055 38.0849 130.926 38.3833 131.883 38.4131L131.946 36.4141ZM130.889 36.0522C130.72 35.8621 130.573 35.5293 130.592 34.9072L128.593 34.8448C128.563 35.8005 128.783 36.6958 129.397 37.3838L130.889 36.0522ZM130.592 34.9072L130.812 27.8706L128.813 27.8082L128.593 34.8448L130.592 34.9072ZM130.812 27.8706C130.848 26.7071 130.674 25.6208 130.054 24.8559L128.5 26.1152C128.661 26.3138 128.844 26.7967 128.813 27.8082L130.812 27.8706ZM130.084 24.8941C129.481 24.0726 128.557 23.7262 127.54 23.6945L127.478 25.6935C128.081 25.7123 128.336 25.8937 128.471 26.077L130.084 24.8941ZM127.54 23.6945C126.29 23.6555 125.182 24.0213 124.319 24.8595L125.713 26.2938C126.127 25.8912 126.681 25.6686 127.478 25.6935L127.54 23.6945ZM124.307 24.8719C123.474 25.7101 123.081 26.8152 123.041 28.0763L125.04 28.1387C125.068 27.2674 125.324 26.6853 125.726 26.2814L124.307 24.8719ZM123.041 28.0763L122.836 34.665L124.835 34.7274L125.04 28.1387L123.041 28.0763ZM122.836 34.665C122.815 35.3384 122.641 35.6535 122.484 35.8049C122.332 35.9515 122.029 36.1046 121.391 36.0847L121.328 38.0837C122.289 38.1137 123.199 37.8937 123.872 37.2444C124.54 36.5998 124.805 35.6959 124.835 34.7274L122.836 34.665ZM138.578 36.9813L137.832 37.6471L137.841 37.6567L137.85 37.666L138.578 36.9813ZM139.26 15.136L139.945 15.8648L139.945 15.8648L139.26 15.136ZM142.843 15.2478L142.096 15.9136L142.113 15.9327L142.131 15.951L142.843 15.2478ZM143.077 28.2534L142.077 28.2222L142.046 29.2217L143.046 29.2529L143.077 28.2534ZM143.141 28.2554L143.11 29.2549L143.555 29.2688L143.863 28.9475L143.141 28.2554ZM147.939 23.2507L148.661 23.9428L148.669 23.9344L147.939 23.2507ZM149.256 22.1072L149.784 22.9562L149.794 22.9497L149.256 22.1072ZM152.355 22.3L151.626 22.9847L151.637 22.9958L151.647 23.0065L152.355 22.3ZM152.86 23.5644L151.86 23.5332L151.86 23.5559L151.86 23.5786L152.86 23.5644ZM152.207 24.9847L152.931 25.6744L152.936 25.6693L152.941 25.6641L152.207 24.9847ZM147.143 30.3013L146.143 30.2701L146.062 32.8862L147.867 30.991L147.143 30.3013ZM147.2 28.4782L147.975 27.8468L146.284 25.7691L146.2 28.447L147.2 28.4782ZM152.442 34.9169L153.232 34.3043L153.225 34.2948L153.217 34.2855L152.442 34.9169ZM152.907 36.4041L151.92 36.2439L151.917 36.2651L151.914 36.2864L152.907 36.4041ZM152.23 37.5995L152.819 38.4077L152.832 38.3977L152.846 38.3874L152.23 37.5995ZM148.998 37.5307L148.427 38.3517L148.436 38.358L148.446 38.3641L148.998 37.5307ZM147.727 36.2104L148.535 35.6214L148.514 35.5926L148.491 35.5654L147.727 36.2104ZM143.065 30.6862L143.829 30.0413L143.542 29.7006L143.096 29.6867L143.065 30.6862ZM143.001 30.6843L143.032 29.6847L142.033 29.6535L142.001 30.6531L143.001 30.6843ZM140.413 36.6784C139.804 36.6594 139.488 36.4889 139.307 36.2966L137.85 37.666C138.495 38.3533 139.381 38.6472 140.35 38.6774L140.413 36.6784ZM139.325 36.3155C139.155 36.1254 139.008 35.7926 139.027 35.1705L137.028 35.1081C136.998 36.0638 137.218 36.9591 137.832 37.6471L139.325 36.3155ZM139.027 35.1705L139.595 16.9713L137.596 16.9089L137.028 35.1081L139.027 35.1705ZM139.595 16.9713C139.616 16.3151 139.789 16.0116 139.945 15.8648L138.576 14.4072C137.896 15.0453 137.626 15.9446 137.596 16.9089L139.595 16.9713ZM139.945 15.8648C140.137 15.6842 140.463 15.5337 141.072 15.5527L141.135 13.5537C140.165 13.5234 139.263 13.7615 138.576 14.4072L139.945 15.8648ZM141.072 15.5527C141.653 15.5709 141.938 15.7363 142.096 15.9136L143.589 14.582C142.963 13.881 142.088 13.5835 141.135 13.5537L141.072 15.5527ZM142.131 15.951C142.289 16.1099 142.446 16.4169 142.426 17.0597L144.425 17.1221C144.455 16.1443 144.224 15.2226 143.554 14.5446L142.131 15.951ZM142.426 17.0597L142.077 28.2222L144.076 28.2846L144.425 17.1221L142.426 17.0597ZM143.046 29.2529L143.11 29.2549L143.172 27.2559L143.108 27.2539L143.046 29.2529ZM143.863 28.9475L148.661 23.9428L147.217 22.5586L142.419 27.5634L143.863 28.9475ZM148.669 23.9344C149.124 23.4493 149.495 23.1363 149.784 22.9562L148.727 21.2583C148.233 21.5659 147.727 22.0152 147.21 22.567L148.669 23.9344ZM149.794 22.9497C149.989 22.8255 150.309 22.7244 150.837 22.7409L150.899 20.7418C150.105 20.717 149.35 20.8598 148.717 21.2647L149.794 22.9497ZM150.837 22.7409C151.333 22.7563 151.536 22.8888 151.626 22.9847L153.084 21.6153C152.513 21.0076 151.725 20.7676 150.899 20.7418L150.837 22.7409ZM151.647 23.0065C151.808 23.1671 151.867 23.323 151.86 23.5332L153.859 23.5956C153.883 22.8249 153.606 22.1379 153.063 21.5936L151.647 23.0065ZM151.86 23.5786C151.862 23.7066 151.809 23.9434 151.474 24.3053L152.941 25.6641C153.49 25.0718 153.871 24.3617 153.86 23.5502L151.86 23.5786ZM151.483 24.295L146.419 29.6116L147.867 30.991L152.931 25.6744L151.483 24.295ZM148.142 30.3325L148.199 28.5094L146.2 28.447L146.143 30.2701L148.142 30.3325ZM146.424 29.1095L151.666 35.5482L153.217 34.2855L147.975 27.8468L146.424 29.1095ZM151.651 35.5294C151.922 35.8796 151.943 36.1023 151.92 36.2439L153.894 36.5643C154.03 35.7291 153.74 34.9602 153.232 34.3043L151.651 35.5294ZM151.914 36.2864C151.888 36.5064 151.801 36.6653 151.614 36.8117L152.846 38.3874C153.446 37.9181 153.811 37.28 153.9 36.5218L151.914 36.2864ZM151.641 36.7914C151.465 36.9194 151.202 37.0152 150.776 37.0019L150.713 39.0009C151.481 39.0249 152.208 38.8528 152.819 38.4077L151.641 36.7914ZM150.776 37.0019C150.169 36.983 149.787 36.8539 149.551 36.6973L148.446 38.3641C149.088 38.7898 149.87 38.9746 150.713 39.0009L150.776 37.0019ZM149.569 36.7097C149.273 36.5038 148.925 36.1567 148.535 35.6214L146.919 36.7994C147.388 37.4434 147.888 37.9766 148.427 38.3517L149.569 36.7097ZM148.491 35.5654L143.829 30.0413L142.301 31.3312L146.963 36.8553L148.491 35.5654ZM143.096 29.6867L143.032 29.6847L142.97 31.6838L143.034 31.6858L143.096 29.6867ZM142.001 30.6531L141.858 35.2588L143.857 35.3212L144 30.7155L142.001 30.6531ZM141.858 35.2588C141.837 35.9322 141.663 36.2473 141.506 36.3986C141.354 36.5453 141.051 36.6984 140.413 36.6784L140.35 38.6774C141.311 38.7074 142.221 38.4875 142.894 37.8381C143.562 37.1935 143.827 36.2897 143.857 35.3212L141.858 35.2588Z" fill="white" fill-opacity="0.4" mask="url(#path-2-outside-1_3_4)"/>
<g filter="url(#filter0_d_3_4)">
<ellipse cx="144.571" cy="81.92" rx="13.5" ry="2.5" transform="rotate(1.78789 144.571 81.92)" fill="#5A5959"/>
</g>
<path d="M94.3756 59.1284C93.6368 58.7947 93.1608 58.3456 92.9476 57.7811C92.7344 57.2167 92.7903 56.5747 93.1152 55.8554L97.7914 45.5025C98.1163 44.7831 98.5469 44.3222 99.0831 44.1196C99.6476 43.9064 100.27 43.9535 100.951 44.2608C101.65 44.577 102.097 45.0129 102.291 45.5686C102.494 46.1048 102.432 46.7326 102.108 47.452L101.423 48.9685L101.131 48.8367C101.891 47.7756 102.815 47.1043 103.902 46.8227C104.989 46.5412 106.181 46.6469 107.48 47.1399C107.984 47.3206 108.296 47.6138 108.417 48.0196C108.566 48.4147 108.506 48.9375 108.236 49.5879C108.002 50.2081 107.661 50.6274 107.211 50.8456C106.781 51.0726 106.218 51.0757 105.521 50.8549L104.824 50.6103C103.672 50.207 102.701 50.1545 101.911 50.453C101.14 50.7603 100.522 51.4292 100.056 52.4596L97.6063 57.8839C97.2814 58.6033 96.8367 59.0696 96.2722 59.2828C95.7272 59.5048 95.095 59.4533 94.3756 59.1284ZM106.349 64.5013C105.63 64.1764 105.168 63.722 104.963 63.1381C104.787 62.5435 104.87 61.8671 105.213 61.1089L109.718 51.1351C110.069 50.3574 110.521 49.8478 111.075 49.6064C111.657 49.3543 112.308 49.3907 113.027 49.7156C113.727 50.0318 114.165 50.4871 114.341 51.0817C114.546 51.6656 114.472 52.3464 114.121 53.1241L109.616 63.0979C109.274 63.8561 108.821 64.3657 108.259 64.6266C107.705 64.868 107.068 64.8263 106.349 64.5013ZM114.107 47.3243C113.291 46.9554 112.742 46.4853 112.462 45.914C112.21 45.3319 112.242 44.6909 112.558 43.991C112.883 43.2717 113.343 42.8239 113.937 42.6477C114.56 42.4608 115.28 42.5518 116.096 42.9206C116.913 43.2895 117.447 43.7649 117.699 44.3469C117.96 44.9095 117.928 45.5505 117.603 46.2698C117.287 46.9698 116.827 47.4175 116.224 47.6132C115.63 47.7894 114.924 47.6931 114.107 47.3243ZM114.139 68.0551C113.42 67.7302 112.953 67.2855 112.74 66.7211C112.546 66.1654 112.612 65.5278 112.937 64.8085L117.613 54.4556C117.938 53.7362 118.369 53.2753 118.905 53.0727C119.469 52.8595 120.092 52.9066 120.772 53.2139C121.472 53.5301 121.919 53.966 122.113 54.5217C122.315 55.0579 122.254 55.6857 121.929 56.4051L121.179 58.0674L121.292 56.9601C122.17 56.2094 123.16 55.7789 124.263 55.6686C125.395 55.5476 126.524 55.7418 127.652 56.2511C128.799 56.7692 129.641 57.4187 130.178 58.1996C130.724 58.961 130.979 59.8723 130.944 60.9335C130.919 61.9752 130.598 63.1766 129.984 64.5375L126.994 71.1576C126.669 71.8769 126.224 72.3432 125.66 72.5564C125.115 72.7784 124.482 72.727 123.763 72.402C123.063 72.0859 122.606 71.6456 122.393 71.0811C122.199 70.5254 122.265 69.8879 122.59 69.1685L125.488 62.7527C125.936 61.7611 126.072 60.968 125.895 60.3735C125.747 59.7682 125.304 59.2988 124.565 58.9651C123.632 58.5435 122.752 58.4971 121.924 58.8257C121.117 59.1631 120.493 59.8178 120.054 60.7899L117.341 66.7975C116.664 68.2946 115.597 68.7138 114.139 68.0551ZM131.483 75.8891C130.764 75.5642 130.298 75.1195 130.084 74.555C129.891 73.9993 129.956 73.3618 130.281 72.6424L137.776 56.0486C138.11 55.3098 138.545 54.8391 139.081 54.6366C139.646 54.4234 140.287 54.4792 141.007 54.8042C141.707 55.1203 142.154 55.5562 142.347 56.1119C142.569 56.6569 142.513 57.2989 142.18 58.0377L137.583 68.2156L137.641 68.2419L143.99 65.4567C144.638 65.1638 145.189 64.9798 145.644 64.9045C146.128 64.8186 146.671 64.9118 147.274 65.184C147.876 65.4562 148.263 65.8181 148.434 66.2697C148.624 66.7301 148.618 67.1839 148.416 67.631C148.242 68.0675 147.86 68.4216 147.269 68.6931L140.554 71.6646L141.305 70.0023L143.681 77.9576C143.849 78.5716 143.802 79.089 143.542 79.5099C143.301 79.9395 142.94 80.221 142.458 80.3546C141.985 80.4687 141.476 80.4028 140.932 80.157C140.271 79.8584 139.793 79.4905 139.499 79.0534C139.225 78.625 139.002 78.0561 138.831 77.3468L136.64 70.4583L136.582 70.432L134.685 74.6315C134.009 76.1285 132.941 76.5477 131.483 75.8891Z" fill="#FBFBFB"/>
<defs>
<filter id="filter0_d_3_4" x="127.078" y="79.3855" width="34.9873" height="13.0689" filterUnits="userSpaceOnUse" color-interpolation-filters="sRGB">
<feFlood flood-opacity="0" result="BackgroundImageFix"/>
<feColorMatrix in="SourceAlpha" type="matrix" values="0 0 0 0 0 0 0 0 0 0 0 0 0 0 0 0 0 0 127 0" result="hardAlpha"/>
<feOffset dy="4"/>
<feGaussianBlur stdDeviation="2"/>
<feComposite in2="hardAlpha" operator="out"/>
<feColorMatrix type="matrix" values="0 0 0 0 0.741667 0 0 0 0 0.639687 0 0 0 0 0.639687 0 0 0 0.25 0"/>
<feBlend mode="normal" in2="BackgroundImageFix" result="effect1_dropShadow_3_4"/>
<feBlend mode="normal" in="SourceGraphic" in2="effect1_dropShadow_3_4" result="shape"/>
</filter>
</defs>
</svg>
