<svg width="44" height="50" viewBox="0 0 44 50" fill="none" xmlns="http://www.w3.org/2000/svg">
<path d="M23.8333 39.5833H25.6667C26.1529 39.5833 26.6192 39.8028 26.963 40.1935C27.3069 40.5842 27.5 41.1141 27.5 41.6667H40.3333V45.8333H27.5C27.5 46.3859 27.3069 46.9158 26.963 47.3065C26.6192 47.6972 26.1529 47.9167 25.6667 47.9167H18.3333C17.8471 47.9167 17.3808 47.6972 17.037 47.3065C16.6932 46.9158 16.5 46.3859 16.5 45.8333H3.66667V41.6667H16.5C16.5 41.1141 16.6932 40.5842 17.037 40.1935C17.3808 39.8028 17.8471 39.5833 18.3333 39.5833H20.1667V35.4167H7.33334C6.84711 35.4167 6.38079 35.1972 6.03698 34.8065C5.69316 34.4158 5.50001 33.8859 5.50001 33.3333V25C5.50001 24.4475 5.69316 23.9176 6.03698 23.5269C6.38079 23.1362 6.84711 22.9167 7.33334 22.9167H36.6667C37.1529 22.9167 37.6192 23.1362 37.963 23.5269C38.3069 23.9176 38.5 24.4475 38.5 25V33.3333C38.5 33.8859 38.3069 34.4158 37.963 34.8065C37.6192 35.1972 37.1529 35.4167 36.6667 35.4167H23.8333V39.5833ZM7.33334 6.25H36.6667C37.1529 6.25 37.6192 6.46949 37.963 6.86019C38.3069 7.25089 38.5 7.7808 38.5 8.33333V16.6667C38.5 17.2192 38.3069 17.7491 37.963 18.1398C37.6192 18.5305 37.1529 18.75 36.6667 18.75H7.33334C6.84711 18.75 6.38079 18.5305 6.03698 18.1398C5.69316 17.7491 5.50001 17.2192 5.50001 16.6667V8.33333C5.50001 7.7808 5.69316 7.25089 6.03698 6.86019C6.38079 6.46949 6.84711 6.25 7.33334 6.25ZM16.5 14.5833H18.3333V10.4167H16.5V14.5833ZM16.5 31.25H18.3333V27.0833H16.5V31.25ZM9.16667 10.4167V14.5833H12.8333V10.4167H9.16667ZM9.16667 27.0833V31.25H12.8333V27.0833H9.16667Z" fill="#E1D8D8"/>
</svg>
