<svg width="23" height="19" viewBox="0 0 23 19" fill="none" xmlns="http://www.w3.org/2000/svg">
<rect x="1.69734" y="0.338949" width="18.0081" height="1.81351" rx="0.906755" transform="rotate(28.4742 1.69734 0.338949)" stroke="#D9D9D9" stroke-width="0.5"/>
<g clip-path="url(#clip0_106_3)">
<path d="M4.8406 4.31568C4.93435 4.12506 5.1406 4.01568 5.34997 4.04381L13 5.00006L20.65 4.04381C20.8593 4.01881 21.0656 4.12818 21.1593 4.31568L22.4625 6.92193C22.7437 7.48131 22.4437 8.15943 21.8437 8.33131L16.7375 9.79068C16.3031 9.91568 15.8375 9.73131 15.6062 9.34381L13 5.00006L10.3937 9.34381C10.1625 9.73131 9.69685 9.91568 9.26247 9.79068L4.15935 8.33131C3.55622 8.15943 3.25935 7.48131 3.5406 6.92193L4.8406 4.31568ZM13.0343 7.00006L14.75 9.85631C15.2156 10.6313 16.1437 11.0001 17.0156 10.7501L21 9.61256V14.8313C21 15.5188 20.5312 16.1188 19.8625 16.2876L13.4843 17.8813C13.1656 17.9626 12.8312 17.9626 12.5156 17.8813L6.13747 16.2876C5.46872 16.1157 4.99997 15.5157 4.99997 14.8282V9.60943L8.98747 10.7501C9.85622 11.0001 10.7875 10.6313 11.2531 9.85631L12.9656 7.00006H13.0343Z" fill="#D0C9C9"/>
</g>
<defs>
<clipPath id="clip0_106_3">
<rect width="20" height="16" fill="white" transform="translate(2.99997 3)"/>
</clipPath>
</defs>
</svg>
