<svg width="23" height="29" viewBox="0 0 23 29" fill="none" xmlns="http://www.w3.org/2000/svg">
<path d="M20 13.5L16 15.5M16 15.5L15.5 15.75L11 18M16 15.5V19M16 15.5L6.5 10.5M11 18L2 13.5M11 18V27.5M14.578 9.382L16.578 10.432C18.729 11.561 19.805 12.125 20.403 13.14C21 14.154 21 15.417 21 17.942V18.059C21 20.583 21 21.846 20.403 22.86C19.805 23.875 18.729 24.44 16.578 25.569L14.578 26.618C12.822 27.539 11.944 28 11 28C10.056 28 9.178 27.54 7.422 26.618L5.422 25.568C3.271 24.439 2.195 23.875 1.597 22.86C1 21.846 1 20.583 1 18.06V17.943C1 15.418 1 14.155 1.597 13.141C2.195 12.126 3.271 11.561 5.422 10.433L7.422 9.383C9.178 8.461 10.056 8 11 8C11.944 8 12.822 8.46 14.578 9.382Z" stroke="#BCB5B5" stroke-width="1.5" stroke-linecap="round"/>
<g clip-path="url(#clip0_106_5)">
<path d="M20.9167 5.92454C20.9834 5.92457 21.0494 5.91145 21.1111 5.88594C21.1727 5.86042 21.2287 5.82301 21.2759 5.77584C21.323 5.72867 21.3605 5.67267 21.386 5.61103C21.4115 5.54939 21.4246 5.48333 21.4246 5.41663H21.659C21.6589 5.48332 21.672 5.54936 21.6975 5.61098C21.723 5.6726 21.7604 5.7286 21.8076 5.77576C21.8547 5.82293 21.9107 5.86035 21.9723 5.88588C22.0339 5.9114 22.1 5.92454 22.1667 5.92454V6.15892C22.032 6.15892 21.9029 6.21241 21.8077 6.30762C21.7124 6.40284 21.659 6.53197 21.659 6.66663H21.4246C21.4246 6.59994 21.4114 6.5339 21.3859 6.47229C21.3604 6.41067 21.323 6.3547 21.2758 6.30755C21.2286 6.2604 21.1726 6.22301 21.111 6.1975C21.0494 6.172 20.9834 6.15889 20.9167 6.15892V5.92454ZM18.2083 7.29163C18.5398 7.29163 18.8578 7.15993 19.0922 6.92551C19.3266 6.69109 19.4583 6.37315 19.4583 6.04163H19.875C19.875 6.37315 20.0067 6.69109 20.2411 6.92551C20.4755 7.15993 20.7935 7.29163 21.125 7.29163V7.70829C20.7935 7.70829 20.4755 7.83999 20.2411 8.07441C20.0067 8.30883 19.875 8.62677 19.875 8.95829H19.4583C19.4583 8.62677 19.3266 8.30883 19.0922 8.07441C18.8578 7.83999 18.5398 7.70829 18.2083 7.70829V7.29163ZM19.0158 7.49996C19.2893 7.65187 19.5147 7.87733 19.6667 8.15079C19.8186 7.87733 20.044 7.65187 20.3175 7.49996C20.044 7.34805 19.8186 7.12259 19.6667 6.84913C19.5147 7.12259 19.2893 7.34805 19.0158 7.49996ZM21.5937 7.91663C21.5937 8.0962 21.5224 8.26842 21.3954 8.3954C21.2685 8.52237 21.0962 8.59371 20.9167 8.59371V8.90621C21.0962 8.90621 21.2685 8.97754 21.3954 9.10452C21.5224 9.2315 21.5937 9.40372 21.5937 9.58329H21.9062C21.9062 9.40372 21.9776 9.2315 22.1046 9.10452C22.2315 8.97754 22.4038 8.90621 22.5833 8.90621V8.59371C22.4038 8.59371 22.2315 8.52237 22.1046 8.3954C21.9776 8.26842 21.9062 8.0962 21.9062 7.91663H21.5937Z" fill="#BCB5B5"/>
</g>
<g clip-path="url(#clip1_106_5)">
<path d="M3.08333 4.92454C3.01662 4.92457 2.95056 4.91145 2.88893 4.88594C2.82729 4.86042 2.77129 4.82301 2.72412 4.77584C2.67695 4.72867 2.63954 4.67267 2.61402 4.61103C2.58851 4.54939 2.57539 4.48333 2.57541 4.41663H2.34104C2.34107 4.48332 2.32795 4.54936 2.30245 4.61098C2.27695 4.6726 2.23956 4.7286 2.19241 4.77576C2.14526 4.82293 2.08928 4.86035 2.02767 4.88588C1.96606 4.9114 1.90002 4.92454 1.83333 4.92454V5.15892C1.96798 5.15892 2.09712 5.21241 2.19233 5.30762C2.28755 5.40284 2.34104 5.53197 2.34104 5.66663H2.57541C2.57541 5.59994 2.58855 5.5339 2.61408 5.47229C2.63961 5.41067 2.67703 5.3547 2.72419 5.30755C2.77136 5.2604 2.82735 5.22301 2.88898 5.1975C2.9506 5.172 3.01664 5.15889 3.08333 5.15892V4.92454ZM5.79166 6.29163C5.46014 6.29163 5.1422 6.15993 4.90778 5.92551C4.67336 5.69109 4.54166 5.37315 4.54166 5.04163H4.125C4.125 5.37315 3.9933 5.69109 3.75888 5.92551C3.52446 6.15993 3.20652 6.29163 2.875 6.29163V6.70829C3.20652 6.70829 3.52446 6.83999 3.75888 7.07441C3.9933 7.30883 4.125 7.62677 4.125 7.95829H4.54166C4.54166 7.62677 4.67336 7.30883 4.90778 7.07441C5.1422 6.83999 5.46014 6.70829 5.79166 6.70829V6.29163ZM4.98416 6.49996C4.7107 6.65187 4.48524 6.87733 4.33333 7.15079C4.18142 6.87733 3.95596 6.65187 3.6825 6.49996C3.95596 6.34805 4.18142 6.12259 4.33333 5.84913C4.48524 6.12259 4.7107 6.34805 4.98416 6.49996ZM2.40625 6.91663C2.40625 7.0962 2.47758 7.26842 2.60456 7.3954C2.73154 7.52237 2.90376 7.59371 3.08333 7.59371V7.90621C2.90376 7.90621 2.73154 7.97754 2.60456 8.10452C2.47758 8.2315 2.40625 8.40372 2.40625 8.58329H2.09375C2.09375 8.40372 2.02241 8.2315 1.89543 8.10452C1.76846 7.97754 1.59624 7.90621 1.41666 7.90621V7.59371C1.59624 7.59371 1.76846 7.52237 1.89543 7.3954C2.02241 7.26842 2.09375 7.0962 2.09375 6.91663H2.40625Z" fill="#BCB5B5"/>
</g>
<g clip-path="url(#clip2_106_5)">
<path d="M11.0833 0.924543C11.0166 0.92457 10.9506 0.911451 10.8889 0.885936C10.8273 0.86042 10.7713 0.823008 10.7241 0.775838C10.677 0.728668 10.6395 0.672665 10.614 0.61103C10.5885 0.549394 10.5754 0.483334 10.5754 0.416626H10.341C10.3411 0.483317 10.328 0.549359 10.3025 0.610982C10.277 0.672604 10.2396 0.728598 10.1924 0.775765C10.1453 0.822932 10.0893 0.860348 10.0277 0.885876C9.96607 0.911404 9.90003 0.924543 9.83334 0.924543V1.15892C9.96799 1.15892 10.0971 1.21241 10.1923 1.30762C10.2876 1.40284 10.341 1.53197 10.341 1.66663H10.5754C10.5754 1.59994 10.5886 1.5339 10.6141 1.47229C10.6396 1.41067 10.677 1.3547 10.7242 1.30755C10.7714 1.2604 10.8274 1.22301 10.889 1.1975C10.9506 1.172 11.0166 1.15889 11.0833 1.15892V0.924543ZM13.7917 2.29163C13.4602 2.29163 13.1422 2.15993 12.9078 1.92551C12.6734 1.69109 12.5417 1.37315 12.5417 1.04163H12.125C12.125 1.37315 11.9933 1.69109 11.7589 1.92551C11.5245 2.15993 11.2065 2.29163 10.875 2.29163V2.70829C11.2065 2.70829 11.5245 2.83999 11.7589 3.07441C11.9933 3.30883 12.125 3.62677 12.125 3.95829H12.5417C12.5417 3.62677 12.6734 3.30883 12.9078 3.07441C13.1422 2.83999 13.4602 2.70829 13.7917 2.70829V2.29163ZM12.9842 2.49996C12.7107 2.65187 12.4853 2.87733 12.3333 3.15079C12.1814 2.87733 11.956 2.65187 11.6825 2.49996C11.956 2.34805 12.1814 2.12259 12.3333 1.84913C12.4853 2.12259 12.7107 2.34805 12.9842 2.49996ZM10.4063 2.91663C10.4063 3.0962 10.4776 3.26842 10.6046 3.3954C10.7315 3.52237 10.9038 3.59371 11.0833 3.59371V3.90621C10.9038 3.90621 10.7315 3.97754 10.6046 4.10452C10.4776 4.2315 10.4063 4.40372 10.4063 4.58329H10.0938C10.0938 4.40372 10.0224 4.2315 9.89544 4.10452C9.76846 3.97754 9.59625 3.90621 9.41667 3.90621V3.59371C9.59625 3.59371 9.76846 3.52237 9.89544 3.3954C10.0224 3.26842 10.0938 3.0962 10.0938 2.91663H10.4063Z" fill="#BCB5B5"/>
</g>
<defs>
<clipPath id="clip0_106_5">
<rect width="5" height="5" fill="white" transform="translate(18 5)"/>
</clipPath>
<clipPath id="clip1_106_5">
<rect width="5" height="5" fill="white" transform="matrix(-1 0 0 1 6 4)"/>
</clipPath>
<clipPath id="clip2_106_5">
<rect width="5" height="5" fill="white" transform="matrix(-1 0 0 1 14 0)"/>
</clipPath>
</defs>
</svg>
