<svg width="43" height="43" viewBox="0 0 43 43" fill="none" xmlns="http://www.w3.org/2000/svg">
<g clip-path="url(#clip0_11_21)">
<path d="M21.5 0C9.62587 0 0 9.62587 0 21.5C0 33.3741 9.62587 43 21.5 43C33.3741 43 43 33.3741 43 21.5C43 9.62587 33.3741 0 21.5 0ZM28.7334 6.71603C29.3637 6.72101 29.9756 6.95349 30.4379 7.41582L34.0158 10.9923C35.0048 11.9814 34.937 13.6477 33.8673 14.72C32.795 15.7923 31.126 15.856 30.1397 14.8698L26.5632 11.2932C25.5741 10.3069 25.6433 8.63522 26.713 7.5656C27.2812 6.99588 28.0191 6.7104 28.7334 6.71603ZM22.8383 11.4416L29.9927 18.5947L18.3659 30.2187L11.2115 23.0643L22.8383 11.4416ZM9.35451 24.4189L16.901 31.9655L7.46484 33.8552L9.35451 24.4189Z" fill="white"/>
</g>
<defs>
<clipPath id="clip0_11_21">
<rect width="43" height="43" fill="white"/>
</clipPath>
</defs>
</svg>
