<svg width="67" height="67" viewBox="0 0 67 67" fill="none" xmlns="http://www.w3.org/2000/svg">
<path opacity="0.5" d="M61.4167 34.4855C61.4167 27.5845 56.9305 21.7192 50.6827 19.5836M50.6827 19.5836C49.044 19.0252 47.2908 18.721 45.4651 18.721C43.6547 18.7203 41.8571 19.0232 40.147 19.6171M50.6827 19.5836C49.7922 11.7083 43.0363 5.58337 34.8288 5.58337C26.0183 5.58337 18.8772 12.6407 18.8745 21.3479C18.8736 23.2181 19.2083 25.0732 19.8627 26.8252C21.4071 27.1259 22.8774 27.7272 24.1898 28.5951M17.5456 50.25C10.9433 50.25 5.58333 44.957 5.58333 38.4273C5.58333 31.8976 10.9405 26.6018 17.5484 26.6018C18.3431 26.6037 19.1155 26.6781 19.8655 26.8252" stroke="white" stroke-width="1.5" stroke-linecap="round"/>
<path d="M47.5923 42.2714C48.6727 41.9085 49.8368 41.7131 51.0484 41.7131C52.2349 41.7131 53.3767 41.9001 54.4403 42.2491M54.4403 42.2491C58.5022 43.5863 61.4167 47.2517 61.4167 51.5621C61.4167 57.0058 56.7741 61.4167 51.0484 61.4167H32.9026C28.6062 61.4167 25.125 58.1113 25.125 54.0271C25.125 49.9429 28.609 46.6376 32.8998 46.6376C33.4055 46.6385 33.91 46.6852 34.4073 46.7772M54.4403 42.2491C53.8652 37.3274 49.4683 33.5 44.1363 33.5C38.4078 33.5 33.768 37.9108 33.768 43.3518C33.7688 44.5234 33.9865 45.6848 34.4101 46.7772C35.4318 46.967 36.3838 47.3495 37.2213 47.8827" stroke="white" stroke-width="1.5" stroke-linecap="round"/>
</svg>
