<svg width="135" height="24" viewBox="0 0 135 24" fill="none" xmlns="http://www.w3.org/2000/svg">
<line x1="0.0018518" y1="19.75" x2="135.002" y2="20.75" stroke="#BEB4B4" stroke-width="0.5" stroke-dasharray="7 7"/>
<mask id="mask0_106_4" style="mask-type:luminance" maskUnits="userSpaceOnUse" x="101" y="3" width="10" height="17">
<path d="M106 13.5V19.5" stroke="#C0C0C0" stroke-opacity="0.25" stroke-linecap="round" stroke-linejoin="round"/>
<path fill-rule="evenodd" clip-rule="evenodd" d="M105 10C104.845 10 104.692 10.0361 104.553 10.1056C104.414 10.175 104.293 10.2758 104.2 10.4L101.2 14.4C101.089 14.5486 101.021 14.7252 101.004 14.9102C100.987 15.0952 101.023 15.2811 101.106 15.4472C101.189 15.6133 101.316 15.753 101.474 15.8507C101.632 15.9483 101.814 16 102 16H110C110.186 16 110.368 15.9483 110.526 15.8507C110.684 15.753 110.811 15.6133 110.894 15.4472C110.977 15.2811 111.013 15.0952 110.996 14.9102C110.979 14.7252 110.911 14.5486 110.8 14.4L107.8 10.4C107.707 10.2758 107.586 10.175 107.447 10.1056C107.308 10.0361 107.155 10 107 10H105Z" fill="white"/>
<path d="M102.64 7.03205L105.232 3.92205C105.326 3.80951 105.443 3.71897 105.576 3.65684C105.709 3.59471 105.853 3.5625 106 3.5625C106.147 3.5625 106.291 3.59471 106.424 3.65684C106.557 3.71897 106.674 3.80951 106.768 3.92205L109.36 7.03205C110.011 7.81305 109.455 9.00005 108.438 9.00005H103.562C102.545 9.00005 101.989 7.81305 102.64 7.03205Z" fill="white"/>
</mask>
<g mask="url(#mask0_106_4)">
<path d="M94 0H118V24H94V0Z" fill="#D7D8DA"/>
</g>
</svg>
